<?xml version="1.0" encoding="UTF-8" standalone="no"?>
<svg
   width="454.80005"
   height="434.177"
   viewBox="0 0 454.80005 434.177"
   fill="none"
   version="1.1"
   id="svg1"
   sodipodi:docname="kanagawa-logo-white.svg"
   inkscape:version="1.4.3 (fcd0343856, 2026-01-01)"
   xmlns:inkscape="http://www.inkscape.org/namespaces/inkscape"
   xmlns:sodipodi="http://sodipodi.sourceforge.net/DTD/sodipodi-0.dtd"
   xmlns="http://www.w3.org/2000/svg"
   xmlns:svg="http://www.w3.org/2000/svg">
  <sodipodi:namedview
     id="namedview1"
     pagecolor="#ffffff"
     bordercolor="#000000"
     borderopacity="0.25"
     inkscape:showpageshadow="2"
     inkscape:pageopacity="0.0"
     inkscape:pagecheckerboard="0"
     inkscape:deskcolor="#d1d1d1"
     inkscape:zoom="1.813984"
     inkscape:cx="227.40002"
     inkscape:cy="216.92584"
     inkscape:window-width="1854"
     inkscape:window-height="1011"
     inkscape:window-x="0"
     inkscape:window-y="0"
     inkscape:window-maximized="1"
     inkscape:current-layer="svg1" />
  <defs
     id="defs1" />
  <path
     d="M 0.00300239,166.75701 V 59.42601 H 174.04 V 9.7824449e-6 H 280.76 V 59.42601 H 454.8 v 107.331 H 280.76 v 16.977 c 0,19.81 3.84,38.403 11.52,55.789 7.28,17.383 17.39,32.543 30.32,45.481 12.94,12.934 28.1,23.041 45.48,30.32 17.39,7.68 35.98,11.523 55.79,11.523 h 30.93 v 107.33 h -30.93 c -41.24,0 -79.24,-9.095 -114,-27.286 -34.77,-18.19 -59.43,-42.852 -82.47,-73.98 -23.04,31.128 -47.71,55.79 -82.47,73.98 -34.77,18.191 -72.766998,27.286 -114.002998,27.286 H 2.3860073e-6 v -107.33 H 30.927002 c 19.81,0 38.406,-3.843 55.793,-11.523 17.379998,-7.279 32.539998,-17.383 45.479998,-30.32 12.93,-12.938 23.04,-28.098 30.32,-45.481 7.68,-17.382 11.52,-35.979 11.52,-55.789 v -16.977 z"
     fill="#f2f2f2"
     id="path1"
     style="fill:#ce0000;fill-opacity:1" />
</svg>
